<svg xmlns="http://www.w3.org/2000/svg" xmlns:xlink="http://www.w3.org/1999/xlink" width="500" zoomAndPan="magnify" viewBox="0 0 375 374.999991" height="500" preserveAspectRatio="xMidYMid meet" version="1.0"><defs><g/><clipPath id="5cb84a4ef4"><path d="M 118.148438 115.859375 L 256.898438 115.859375 L 256.898438 178 L 118.148438 178 Z M 118.148438 115.859375 " clip-rule="nonzero"/></clipPath></defs><g fill="#545454" fill-opacity="1"><g transform="translate(74.130841, 213.513737)"><g><path d="M 10.328125 -22.3125 C 12.679688 -22.3125 14.734375 -21.84375 16.484375 -20.90625 C 18.242188 -19.976562 19.609375 -18.671875 20.578125 -16.984375 C 21.546875 -15.296875 22.03125 -13.351562 22.03125 -11.15625 C 22.03125 -8.96875 21.546875 -7.023438 20.578125 -5.328125 C 19.609375 -3.640625 18.238281 -2.328125 16.46875 -1.390625 C 14.707031 -0.460938 12.660156 0 10.328125 0 L 1.96875 0 L 1.96875 -22.3125 Z M 9.984375 -4.703125 C 12.035156 -4.703125 13.632812 -5.265625 14.78125 -6.390625 C 15.925781 -7.515625 16.5 -9.101562 16.5 -11.15625 C 16.5 -13.207031 15.925781 -14.804688 14.78125 -15.953125 C 13.632812 -17.097656 12.035156 -17.671875 9.984375 -17.671875 L 7.40625 -17.671875 L 7.40625 -4.703125 Z M 9.984375 -4.703125 "/></g></g></g><g fill="#545454" fill-opacity="1"><g transform="translate(106.390518, 213.513737)"><g><path d="M 15.859375 -3.9375 L 7.53125 -3.9375 L 6.203125 0 L 0.515625 0 L 8.578125 -22.3125 L 14.875 -22.3125 L 22.953125 0 L 17.1875 0 Z M 14.453125 -8.140625 L 11.703125 -16.296875 L 8.96875 -8.140625 Z M 14.453125 -8.140625 "/></g></g></g><g fill="#545454" fill-opacity="1"><g transform="translate(138.968008, 213.513737)"><g><path d="M 18.015625 -22.3125 L 18.015625 -17.953125 L 12.109375 -17.953125 L 12.109375 0 L 6.671875 0 L 6.671875 -17.953125 L 0.765625 -17.953125 L 0.765625 -22.3125 Z M 18.015625 -22.3125 "/></g></g></g><g fill="#545454" fill-opacity="1"><g transform="translate(166.905421, 213.513737)"><g><path d="M 15.859375 -3.9375 L 7.53125 -3.9375 L 6.203125 0 L 0.515625 0 L 8.578125 -22.3125 L 14.875 -22.3125 L 22.953125 0 L 17.1875 0 Z M 14.453125 -8.140625 L 11.703125 -16.296875 L 8.96875 -8.140625 Z M 14.453125 -8.140625 "/></g></g></g><g fill="#545454" fill-opacity="1"><g transform="translate(199.482915, 213.513737)"><g/></g></g><g fill="#545454" fill-opacity="1"><g transform="translate(215.375221, 213.513737)"><g><path d="M 21.296875 -22.3125 L 21.296875 0 L 15.859375 0 L 15.859375 -9.1875 L 7.40625 -9.1875 L 7.40625 0 L 1.96875 0 L 1.96875 -22.3125 L 7.40625 -22.3125 L 7.40625 -13.578125 L 15.859375 -13.578125 L 15.859375 -22.3125 Z M 21.296875 -22.3125 "/></g></g></g><g fill="#545454" fill-opacity="1"><g transform="translate(247.762033, 213.513737)"><g><path d="M 15.859375 -3.9375 L 7.53125 -3.9375 L 6.203125 0 L 0.515625 0 L 8.578125 -22.3125 L 14.875 -22.3125 L 22.953125 0 L 17.1875 0 Z M 14.453125 -8.140625 L 11.703125 -16.296875 L 8.96875 -8.140625 Z M 14.453125 -8.140625 "/></g></g></g><g fill="#545454" fill-opacity="1"><g transform="translate(280.339515, 213.513737)"><g><path d="M 32.671875 -22.3125 L 26.859375 0 L 20.28125 0 L 16.71875 -14.6875 L 13.03125 0 L 6.453125 0 L 0.796875 -22.3125 L 6.609375 -22.3125 L 9.828125 -6.0625 L 13.796875 -22.3125 L 19.765625 -22.3125 L 23.578125 -6.0625 L 26.828125 -22.3125 Z M 32.671875 -22.3125 "/></g></g></g><g fill="#545454" fill-opacity="1"><g transform="translate(322.928128, 213.513737)"><g><path d="M 14.90625 0 L 7.40625 -9.859375 L 7.40625 0 L 1.96875 0 L 1.96875 -22.3125 L 7.40625 -22.3125 L 7.40625 -12.515625 L 14.84375 -22.3125 L 21.234375 -22.3125 L 12.578125 -11.375 L 21.546875 0 Z M 14.90625 0 "/></g></g></g><g fill="#545454" fill-opacity="1"><g transform="translate(101.994307, 235.101517)"><g><path d="M 7.25 -2.296875 L 2.75 -2.296875 L 1.90625 0 L 0.484375 0 L 4.21875 -10.28125 L 5.78125 -10.28125 L 9.5 0 L 8.078125 0 Z M 6.859375 -3.390625 L 5 -8.609375 L 3.125 -3.390625 Z M 6.859375 -3.390625 "/></g></g></g><g fill="#545454" fill-opacity="1"><g transform="translate(112.727568, 235.101517)"><g><path d="M 8.34375 -8.125 L 8.34375 0 L 7 0 L 7 -1.203125 C 6.738281 -0.785156 6.378906 -0.457031 5.921875 -0.21875 C 5.460938 0.0078125 4.957031 0.125 4.40625 0.125 C 3.769531 0.125 3.195312 -0.00390625 2.6875 -0.265625 C 2.1875 -0.535156 1.789062 -0.929688 1.5 -1.453125 C 1.207031 -1.972656 1.0625 -2.609375 1.0625 -3.359375 L 1.0625 -8.125 L 2.40625 -8.125 L 2.40625 -3.546875 C 2.40625 -2.742188 2.609375 -2.125 3.015625 -1.6875 C 3.421875 -1.257812 3.972656 -1.046875 4.671875 -1.046875 C 5.390625 -1.046875 5.957031 -1.269531 6.375 -1.71875 C 6.789062 -2.164062 7 -2.8125 7 -3.65625 L 7 -8.125 Z M 8.34375 -8.125 "/></g></g></g><g fill="#545454" fill-opacity="1"><g transform="translate(122.956809, 235.101517)"><g><path d="M 2.78125 -7.015625 L 2.78125 -2.21875 C 2.78125 -1.820312 2.863281 -1.539062 3.03125 -1.375 C 3.207031 -1.21875 3.503906 -1.140625 3.921875 -1.140625 L 4.90625 -1.140625 L 4.90625 0 L 3.6875 0 C 2.9375 0 2.375 -0.171875 2 -0.515625 C 1.625 -0.859375 1.4375 -1.425781 1.4375 -2.21875 L 1.4375 -7.015625 L 0.390625 -7.015625 L 0.390625 -8.125 L 1.4375 -8.125 L 1.4375 -10.171875 L 2.78125 -10.171875 L 2.78125 -8.125 L 4.90625 -8.125 L 4.90625 -7.015625 Z M 2.78125 -7.015625 "/></g></g></g><g fill="#545454" fill-opacity="1"><g transform="translate(129.09457, 235.101517)"><g><path d="M 4.6875 0.140625 C 3.925781 0.140625 3.234375 -0.03125 2.609375 -0.375 C 1.992188 -0.726562 1.507812 -1.222656 1.15625 -1.859375 C 0.8125 -2.492188 0.640625 -3.234375 0.640625 -4.078125 C 0.640625 -4.910156 0.816406 -5.644531 1.171875 -6.28125 C 1.535156 -6.914062 2.03125 -7.40625 2.65625 -7.75 C 3.28125 -8.09375 3.976562 -8.265625 4.75 -8.265625 C 5.519531 -8.265625 6.210938 -8.09375 6.828125 -7.75 C 7.453125 -7.40625 7.945312 -6.914062 8.3125 -6.28125 C 8.675781 -5.65625 8.859375 -4.921875 8.859375 -4.078125 C 8.859375 -3.234375 8.671875 -2.492188 8.296875 -1.859375 C 7.921875 -1.222656 7.414062 -0.726562 6.78125 -0.375 C 6.15625 -0.03125 5.457031 0.140625 4.6875 0.140625 Z M 4.6875 -1.046875 C 5.164062 -1.046875 5.617188 -1.160156 6.046875 -1.390625 C 6.472656 -1.617188 6.816406 -1.957031 7.078125 -2.40625 C 7.335938 -2.863281 7.46875 -3.421875 7.46875 -4.078125 C 7.46875 -4.734375 7.335938 -5.285156 7.078125 -5.734375 C 6.828125 -6.191406 6.492188 -6.53125 6.078125 -6.75 C 5.660156 -6.976562 5.210938 -7.09375 4.734375 -7.09375 C 4.234375 -7.09375 3.78125 -6.976562 3.375 -6.75 C 2.96875 -6.53125 2.640625 -6.191406 2.390625 -5.734375 C 2.140625 -5.285156 2.015625 -4.734375 2.015625 -4.078125 C 2.015625 -3.410156 2.132812 -2.847656 2.375 -2.390625 C 2.625 -1.941406 2.945312 -1.601562 3.34375 -1.375 C 3.75 -1.15625 4.195312 -1.046875 4.6875 -1.046875 Z M 4.6875 -1.046875 "/></g></g></g><g fill="#545454" fill-opacity="1"><g transform="translate(139.32381, 235.101517)"><g><path d="M 10.90625 -8.28125 C 11.539062 -8.28125 12.101562 -8.144531 12.59375 -7.875 C 13.09375 -7.613281 13.484375 -7.222656 13.765625 -6.703125 C 14.054688 -6.179688 14.203125 -5.546875 14.203125 -4.796875 L 14.203125 0 L 12.875 0 L 12.875 -4.59375 C 12.875 -5.40625 12.671875 -6.023438 12.265625 -6.453125 C 11.867188 -6.890625 11.328125 -7.109375 10.640625 -7.109375 C 9.941406 -7.109375 9.382812 -6.878906 8.96875 -6.421875 C 8.550781 -5.972656 8.34375 -5.328125 8.34375 -4.484375 L 8.34375 0 L 7.015625 0 L 7.015625 -4.59375 C 7.015625 -5.40625 6.8125 -6.023438 6.40625 -6.453125 C 6.007812 -6.890625 5.472656 -7.109375 4.796875 -7.109375 C 4.085938 -7.109375 3.523438 -6.878906 3.109375 -6.421875 C 2.691406 -5.972656 2.484375 -5.328125 2.484375 -4.484375 L 2.484375 0 L 1.140625 0 L 1.140625 -8.125 L 2.484375 -8.125 L 2.484375 -6.953125 C 2.753906 -7.378906 3.113281 -7.707031 3.5625 -7.9375 C 4.007812 -8.164062 4.507812 -8.28125 5.0625 -8.28125 C 5.738281 -8.28125 6.335938 -8.125 6.859375 -7.8125 C 7.390625 -7.507812 7.78125 -7.0625 8.03125 -6.46875 C 8.257812 -7.039062 8.632812 -7.484375 9.15625 -7.796875 C 9.6875 -8.117188 10.269531 -8.28125 10.90625 -8.28125 Z M 10.90625 -8.28125 "/></g></g></g><g fill="#545454" fill-opacity="1"><g transform="translate(155.334494, 235.101517)"><g><path d="M 0.640625 -4.09375 C 0.640625 -4.925781 0.804688 -5.65625 1.140625 -6.28125 C 1.472656 -6.90625 1.929688 -7.390625 2.515625 -7.734375 C 3.109375 -8.085938 3.769531 -8.265625 4.5 -8.265625 C 5.207031 -8.265625 5.820312 -8.109375 6.34375 -7.796875 C 6.863281 -7.492188 7.253906 -7.109375 7.515625 -6.640625 L 7.515625 -8.125 L 8.875 -8.125 L 8.875 0 L 7.515625 0 L 7.515625 -1.515625 C 7.253906 -1.035156 6.859375 -0.640625 6.328125 -0.328125 C 5.796875 -0.015625 5.179688 0.140625 4.484375 0.140625 C 3.753906 0.140625 3.097656 -0.0351562 2.515625 -0.390625 C 1.929688 -0.753906 1.472656 -1.253906 1.140625 -1.890625 C 0.804688 -2.535156 0.640625 -3.269531 0.640625 -4.09375 Z M 7.515625 -4.078125 C 7.515625 -4.691406 7.390625 -5.222656 7.140625 -5.671875 C 6.898438 -6.128906 6.566406 -6.476562 6.140625 -6.71875 C 5.722656 -6.96875 5.265625 -7.09375 4.765625 -7.09375 C 4.253906 -7.09375 3.789062 -6.972656 3.375 -6.734375 C 2.96875 -6.492188 2.640625 -6.144531 2.390625 -5.6875 C 2.140625 -5.238281 2.015625 -4.707031 2.015625 -4.09375 C 2.015625 -3.46875 2.140625 -2.925781 2.390625 -2.46875 C 2.640625 -2.007812 2.96875 -1.65625 3.375 -1.40625 C 3.789062 -1.164062 4.253906 -1.046875 4.765625 -1.046875 C 5.265625 -1.046875 5.722656 -1.164062 6.140625 -1.40625 C 6.566406 -1.65625 6.898438 -2.007812 7.140625 -2.46875 C 7.390625 -2.925781 7.515625 -3.460938 7.515625 -4.078125 Z M 7.515625 -4.078125 "/></g></g></g><g fill="#545454" fill-opacity="1"><g transform="translate(166.09741, 235.101517)"><g><path d="M 2.78125 -7.015625 L 2.78125 -2.21875 C 2.78125 -1.820312 2.863281 -1.539062 3.03125 -1.375 C 3.207031 -1.21875 3.503906 -1.140625 3.921875 -1.140625 L 4.90625 -1.140625 L 4.90625 0 L 3.6875 0 C 2.9375 0 2.375 -0.171875 2 -0.515625 C 1.625 -0.859375 1.4375 -1.425781 1.4375 -2.21875 L 1.4375 -7.015625 L 0.390625 -7.015625 L 0.390625 -8.125 L 1.4375 -8.125 L 1.4375 -10.171875 L 2.78125 -10.171875 L 2.78125 -8.125 L 4.90625 -8.125 L 4.90625 -7.015625 Z M 2.78125 -7.015625 "/></g></g></g><g fill="#545454" fill-opacity="1"><g transform="translate(172.235174, 235.101517)"><g><path d="M 8.5625 -4.375 C 8.5625 -4.113281 8.546875 -3.84375 8.515625 -3.5625 L 2.015625 -3.5625 C 2.066406 -2.757812 2.34375 -2.132812 2.84375 -1.6875 C 3.34375 -1.238281 3.945312 -1.015625 4.65625 -1.015625 C 5.238281 -1.015625 5.722656 -1.148438 6.109375 -1.421875 C 6.503906 -1.691406 6.78125 -2.050781 6.9375 -2.5 L 8.390625 -2.5 C 8.171875 -1.71875 7.734375 -1.082031 7.078125 -0.59375 C 6.429688 -0.101562 5.625 0.140625 4.65625 0.140625 C 3.882812 0.140625 3.191406 -0.03125 2.578125 -0.375 C 1.972656 -0.726562 1.5 -1.222656 1.15625 -1.859375 C 0.8125 -2.492188 0.640625 -3.234375 0.640625 -4.078125 C 0.640625 -4.921875 0.804688 -5.65625 1.140625 -6.28125 C 1.472656 -6.914062 1.941406 -7.40625 2.546875 -7.75 C 3.160156 -8.09375 3.863281 -8.265625 4.65625 -8.265625 C 5.425781 -8.265625 6.109375 -8.09375 6.703125 -7.75 C 7.296875 -7.414062 7.753906 -6.953125 8.078125 -6.359375 C 8.398438 -5.773438 8.5625 -5.113281 8.5625 -4.375 Z M 7.15625 -4.65625 C 7.15625 -5.164062 7.039062 -5.609375 6.8125 -5.984375 C 6.59375 -6.359375 6.285156 -6.640625 5.890625 -6.828125 C 5.503906 -7.023438 5.070312 -7.125 4.59375 -7.125 C 3.914062 -7.125 3.335938 -6.90625 2.859375 -6.46875 C 2.378906 -6.03125 2.101562 -5.425781 2.03125 -4.65625 Z M 7.15625 -4.65625 "/></g></g></g><g fill="#545454" fill-opacity="1"><g transform="translate(182.167935, 235.101517)"><g/></g></g><g fill="#545454" fill-opacity="1"><g transform="translate(186.867749, 235.101517)"><g><path d="M 8.140625 -8.125 L 3.25 3.828125 L 1.859375 3.828125 L 3.453125 -0.09375 L 0.171875 -8.125 L 1.671875 -8.125 L 4.21875 -1.546875 L 6.75 -8.125 Z M 8.140625 -8.125 "/></g></g></g><g fill="#545454" fill-opacity="1"><g transform="translate(195.955524, 235.101517)"><g><path d="M 4.6875 0.140625 C 3.925781 0.140625 3.234375 -0.03125 2.609375 -0.375 C 1.992188 -0.726562 1.507812 -1.222656 1.15625 -1.859375 C 0.8125 -2.492188 0.640625 -3.234375 0.640625 -4.078125 C 0.640625 -4.910156 0.816406 -5.644531 1.171875 -6.28125 C 1.535156 -6.914062 2.03125 -7.40625 2.65625 -7.75 C 3.28125 -8.09375 3.976562 -8.265625 4.75 -8.265625 C 5.519531 -8.265625 6.210938 -8.09375 6.828125 -7.75 C 7.453125 -7.40625 7.945312 -6.914062 8.3125 -6.28125 C 8.675781 -5.65625 8.859375 -4.921875 8.859375 -4.078125 C 8.859375 -3.234375 8.671875 -2.492188 8.296875 -1.859375 C 7.921875 -1.222656 7.414062 -0.726562 6.78125 -0.375 C 6.15625 -0.03125 5.457031 0.140625 4.6875 0.140625 Z M 4.6875 -1.046875 C 5.164062 -1.046875 5.617188 -1.160156 6.046875 -1.390625 C 6.472656 -1.617188 6.816406 -1.957031 7.078125 -2.40625 C 7.335938 -2.863281 7.46875 -3.421875 7.46875 -4.078125 C 7.46875 -4.734375 7.335938 -5.285156 7.078125 -5.734375 C 6.828125 -6.191406 6.492188 -6.53125 6.078125 -6.75 C 5.660156 -6.976562 5.210938 -7.09375 4.734375 -7.09375 C 4.234375 -7.09375 3.78125 -6.976562 3.375 -6.75 C 2.96875 -6.53125 2.640625 -6.191406 2.390625 -5.734375 C 2.140625 -5.285156 2.015625 -4.734375 2.015625 -4.078125 C 2.015625 -3.410156 2.132812 -2.847656 2.375 -2.390625 C 2.625 -1.941406 2.945312 -1.601562 3.34375 -1.375 C 3.75 -1.15625 4.195312 -1.046875 4.6875 -1.046875 Z M 4.6875 -1.046875 "/></g></g></g><g fill="#545454" fill-opacity="1"><g transform="translate(206.184768, 235.101517)"><g><path d="M 8.34375 -8.125 L 8.34375 0 L 7 0 L 7 -1.203125 C 6.738281 -0.785156 6.378906 -0.457031 5.921875 -0.21875 C 5.460938 0.0078125 4.957031 0.125 4.40625 0.125 C 3.769531 0.125 3.195312 -0.00390625 2.6875 -0.265625 C 2.1875 -0.535156 1.789062 -0.929688 1.5 -1.453125 C 1.207031 -1.972656 1.0625 -2.609375 1.0625 -3.359375 L 1.0625 -8.125 L 2.40625 -8.125 L 2.40625 -3.546875 C 2.40625 -2.742188 2.609375 -2.125 3.015625 -1.6875 C 3.421875 -1.257812 3.972656 -1.046875 4.671875 -1.046875 C 5.390625 -1.046875 5.957031 -1.269531 6.375 -1.71875 C 6.789062 -2.164062 7 -2.8125 7 -3.65625 L 7 -8.125 Z M 8.34375 -8.125 "/></g></g></g><g fill="#545454" fill-opacity="1"><g transform="translate(216.414011, 235.101517)"><g><path d="M 2.484375 -6.8125 C 2.722656 -7.269531 3.0625 -7.628906 3.5 -7.890625 C 3.945312 -8.148438 4.484375 -8.28125 5.109375 -8.28125 L 5.109375 -6.875 L 4.765625 -6.875 C 3.242188 -6.875 2.484375 -6.054688 2.484375 -4.421875 L 2.484375 0 L 1.140625 0 L 1.140625 -8.125 L 2.484375 -8.125 Z M 2.484375 -6.8125 "/></g></g></g><g fill="#545454" fill-opacity="1"><g transform="translate(222.68519, 235.101517)"><g/></g></g><g fill="#545454" fill-opacity="1"><g transform="translate(227.385004, 235.101517)"><g><path d="M 2.484375 -6.8125 C 2.722656 -7.269531 3.0625 -7.628906 3.5 -7.890625 C 3.945312 -8.148438 4.484375 -8.28125 5.109375 -8.28125 L 5.109375 -6.875 L 4.765625 -6.875 C 3.242188 -6.875 2.484375 -6.054688 2.484375 -4.421875 L 2.484375 0 L 1.140625 0 L 1.140625 -8.125 L 2.484375 -8.125 Z M 2.484375 -6.8125 "/></g></g></g><g fill="#545454" fill-opacity="1"><g transform="translate(233.656183, 235.101517)"><g><path d="M 8.5625 -4.375 C 8.5625 -4.113281 8.546875 -3.84375 8.515625 -3.5625 L 2.015625 -3.5625 C 2.066406 -2.757812 2.34375 -2.132812 2.84375 -1.6875 C 3.34375 -1.238281 3.945312 -1.015625 4.65625 -1.015625 C 5.238281 -1.015625 5.722656 -1.148438 6.109375 -1.421875 C 6.503906 -1.691406 6.78125 -2.050781 6.9375 -2.5 L 8.390625 -2.5 C 8.171875 -1.71875 7.734375 -1.082031 7.078125 -0.59375 C 6.429688 -0.101562 5.625 0.140625 4.65625 0.140625 C 3.882812 0.140625 3.191406 -0.03125 2.578125 -0.375 C 1.972656 -0.726562 1.5 -1.222656 1.15625 -1.859375 C 0.8125 -2.492188 0.640625 -3.234375 0.640625 -4.078125 C 0.640625 -4.921875 0.804688 -5.65625 1.140625 -6.28125 C 1.472656 -6.914062 1.941406 -7.40625 2.546875 -7.75 C 3.160156 -8.09375 3.863281 -8.265625 4.65625 -8.265625 C 5.425781 -8.265625 6.109375 -8.09375 6.703125 -7.75 C 7.296875 -7.414062 7.753906 -6.953125 8.078125 -6.359375 C 8.398438 -5.773438 8.5625 -5.113281 8.5625 -4.375 Z M 7.15625 -4.65625 C 7.15625 -5.164062 7.039062 -5.609375 6.8125 -5.984375 C 6.59375 -6.359375 6.285156 -6.640625 5.890625 -6.828125 C 5.503906 -7.023438 5.070312 -7.125 4.59375 -7.125 C 3.914062 -7.125 3.335938 -6.90625 2.859375 -6.46875 C 2.378906 -6.03125 2.101562 -5.425781 2.03125 -4.65625 Z M 7.15625 -4.65625 "/></g></g></g><g fill="#545454" fill-opacity="1"><g transform="translate(243.588944, 235.101517)"><g><path d="M 4.015625 0.140625 C 3.390625 0.140625 2.828125 0.0351562 2.328125 -0.171875 C 1.835938 -0.390625 1.445312 -0.6875 1.15625 -1.0625 C 0.875 -1.445312 0.722656 -1.890625 0.703125 -2.390625 L 2.09375 -2.390625 C 2.132812 -1.984375 2.320312 -1.648438 2.65625 -1.390625 C 3 -1.140625 3.445312 -1.015625 4 -1.015625 C 4.519531 -1.015625 4.925781 -1.125 5.21875 -1.34375 C 5.519531 -1.570312 5.671875 -1.859375 5.671875 -2.203125 C 5.671875 -2.566406 5.507812 -2.832031 5.1875 -3 C 4.875 -3.175781 4.382812 -3.347656 3.71875 -3.515625 C 3.113281 -3.671875 2.617188 -3.828125 2.234375 -3.984375 C 1.859375 -4.148438 1.535156 -4.394531 1.265625 -4.71875 C 0.992188 -5.039062 0.859375 -5.460938 0.859375 -5.984375 C 0.859375 -6.398438 0.976562 -6.78125 1.21875 -7.125 C 1.46875 -7.476562 1.820312 -7.753906 2.28125 -7.953125 C 2.738281 -8.160156 3.257812 -8.265625 3.84375 -8.265625 C 4.738281 -8.265625 5.460938 -8.035156 6.015625 -7.578125 C 6.566406 -7.117188 6.863281 -6.492188 6.90625 -5.703125 L 5.5625 -5.703125 C 5.53125 -6.128906 5.359375 -6.472656 5.046875 -6.734375 C 4.734375 -6.992188 4.316406 -7.125 3.796875 -7.125 C 3.304688 -7.125 2.914062 -7.019531 2.625 -6.8125 C 2.34375 -6.601562 2.203125 -6.328125 2.203125 -5.984375 C 2.203125 -5.722656 2.289062 -5.503906 2.46875 -5.328125 C 2.644531 -5.160156 2.863281 -5.023438 3.125 -4.921875 C 3.382812 -4.816406 3.75 -4.695312 4.21875 -4.5625 C 4.800781 -4.40625 5.273438 -4.25 5.640625 -4.09375 C 6.003906 -3.945312 6.316406 -3.71875 6.578125 -3.40625 C 6.835938 -3.101562 6.972656 -2.703125 6.984375 -2.203125 C 6.984375 -1.765625 6.859375 -1.363281 6.609375 -1 C 6.367188 -0.644531 6.019531 -0.363281 5.5625 -0.15625 C 5.113281 0.0390625 4.597656 0.140625 4.015625 0.140625 Z M 4.015625 0.140625 "/></g></g></g><g fill="#545454" fill-opacity="1"><g transform="translate(252.068936, 235.101517)"><g><path d="M 8.5625 -4.375 C 8.5625 -4.113281 8.546875 -3.84375 8.515625 -3.5625 L 2.015625 -3.5625 C 2.066406 -2.757812 2.34375 -2.132812 2.84375 -1.6875 C 3.34375 -1.238281 3.945312 -1.015625 4.65625 -1.015625 C 5.238281 -1.015625 5.722656 -1.148438 6.109375 -1.421875 C 6.503906 -1.691406 6.78125 -2.050781 6.9375 -2.5 L 8.390625 -2.5 C 8.171875 -1.71875 7.734375 -1.082031 7.078125 -0.59375 C 6.429688 -0.101562 5.625 0.140625 4.65625 0.140625 C 3.882812 0.140625 3.191406 -0.03125 2.578125 -0.375 C 1.972656 -0.726562 1.5 -1.222656 1.15625 -1.859375 C 0.8125 -2.492188 0.640625 -3.234375 0.640625 -4.078125 C 0.640625 -4.921875 0.804688 -5.65625 1.140625 -6.28125 C 1.472656 -6.914062 1.941406 -7.40625 2.546875 -7.75 C 3.160156 -8.09375 3.863281 -8.265625 4.65625 -8.265625 C 5.425781 -8.265625 6.109375 -8.09375 6.703125 -7.75 C 7.296875 -7.414062 7.753906 -6.953125 8.078125 -6.359375 C 8.398438 -5.773438 8.5625 -5.113281 8.5625 -4.375 Z M 7.15625 -4.65625 C 7.15625 -5.164062 7.039062 -5.609375 6.8125 -5.984375 C 6.59375 -6.359375 6.285156 -6.640625 5.890625 -6.828125 C 5.503906 -7.023438 5.070312 -7.125 4.59375 -7.125 C 3.914062 -7.125 3.335938 -6.90625 2.859375 -6.46875 C 2.378906 -6.03125 2.101562 -5.425781 2.03125 -4.65625 Z M 7.15625 -4.65625 "/></g></g></g><g fill="#545454" fill-opacity="1"><g transform="translate(262.001697, 235.101517)"><g><path d="M 0.640625 -4.09375 C 0.640625 -4.925781 0.804688 -5.65625 1.140625 -6.28125 C 1.472656 -6.90625 1.929688 -7.390625 2.515625 -7.734375 C 3.109375 -8.085938 3.769531 -8.265625 4.5 -8.265625 C 5.207031 -8.265625 5.820312 -8.109375 6.34375 -7.796875 C 6.863281 -7.492188 7.253906 -7.109375 7.515625 -6.640625 L 7.515625 -8.125 L 8.875 -8.125 L 8.875 0 L 7.515625 0 L 7.515625 -1.515625 C 7.253906 -1.035156 6.859375 -0.640625 6.328125 -0.328125 C 5.796875 -0.015625 5.179688 0.140625 4.484375 0.140625 C 3.753906 0.140625 3.097656 -0.0351562 2.515625 -0.390625 C 1.929688 -0.753906 1.472656 -1.253906 1.140625 -1.890625 C 0.804688 -2.535156 0.640625 -3.269531 0.640625 -4.09375 Z M 7.515625 -4.078125 C 7.515625 -4.691406 7.390625 -5.222656 7.140625 -5.671875 C 6.898438 -6.128906 6.566406 -6.476562 6.140625 -6.71875 C 5.722656 -6.96875 5.265625 -7.09375 4.765625 -7.09375 C 4.253906 -7.09375 3.789062 -6.972656 3.375 -6.734375 C 2.96875 -6.492188 2.640625 -6.144531 2.390625 -5.6875 C 2.140625 -5.238281 2.015625 -4.707031 2.015625 -4.09375 C 2.015625 -3.46875 2.140625 -2.925781 2.390625 -2.46875 C 2.640625 -2.007812 2.96875 -1.65625 3.375 -1.40625 C 3.789062 -1.164062 4.253906 -1.046875 4.765625 -1.046875 C 5.265625 -1.046875 5.722656 -1.164062 6.140625 -1.40625 C 6.566406 -1.65625 6.898438 -2.007812 7.140625 -2.46875 C 7.390625 -2.925781 7.515625 -3.460938 7.515625 -4.078125 Z M 7.515625 -4.078125 "/></g></g></g><g fill="#545454" fill-opacity="1"><g transform="translate(272.764613, 235.101517)"><g><path d="M 2.484375 -6.8125 C 2.722656 -7.269531 3.0625 -7.628906 3.5 -7.890625 C 3.945312 -8.148438 4.484375 -8.28125 5.109375 -8.28125 L 5.109375 -6.875 L 4.765625 -6.875 C 3.242188 -6.875 2.484375 -6.054688 2.484375 -4.421875 L 2.484375 0 L 1.140625 0 L 1.140625 -8.125 L 2.484375 -8.125 Z M 2.484375 -6.8125 "/></g></g></g><g fill="#545454" fill-opacity="1"><g transform="translate(279.035792, 235.101517)"><g><path d="M 0.640625 -4.078125 C 0.640625 -4.921875 0.804688 -5.65625 1.140625 -6.28125 C 1.472656 -6.90625 1.9375 -7.390625 2.53125 -7.734375 C 3.132812 -8.085938 3.820312 -8.265625 4.59375 -8.265625 C 5.59375 -8.265625 6.414062 -8.019531 7.0625 -7.53125 C 7.707031 -7.050781 8.132812 -6.378906 8.34375 -5.515625 L 6.890625 -5.515625 C 6.753906 -6.003906 6.484375 -6.394531 6.078125 -6.6875 C 5.679688 -6.976562 5.1875 -7.125 4.59375 -7.125 C 3.820312 -7.125 3.195312 -6.859375 2.71875 -6.328125 C 2.25 -5.796875 2.015625 -5.046875 2.015625 -4.078125 C 2.015625 -3.097656 2.25 -2.34375 2.71875 -1.8125 C 3.195312 -1.28125 3.820312 -1.015625 4.59375 -1.015625 C 5.1875 -1.015625 5.679688 -1.148438 6.078125 -1.421875 C 6.472656 -1.703125 6.742188 -2.097656 6.890625 -2.609375 L 8.34375 -2.609375 C 8.125 -1.773438 7.6875 -1.109375 7.03125 -0.609375 C 6.382812 -0.109375 5.570312 0.140625 4.59375 0.140625 C 3.820312 0.140625 3.132812 -0.03125 2.53125 -0.375 C 1.9375 -0.726562 1.472656 -1.21875 1.140625 -1.84375 C 0.804688 -2.476562 0.640625 -3.222656 0.640625 -4.078125 Z M 0.640625 -4.078125 "/></g></g></g><g fill="#545454" fill-opacity="1"><g transform="translate(288.775835, 235.101517)"><g><path d="M 5.171875 -8.28125 C 5.785156 -8.28125 6.335938 -8.144531 6.828125 -7.875 C 7.328125 -7.613281 7.71875 -7.222656 8 -6.703125 C 8.28125 -6.179688 8.421875 -5.546875 8.421875 -4.796875 L 8.421875 0 L 7.09375 0 L 7.09375 -4.59375 C 7.09375 -5.40625 6.890625 -6.023438 6.484375 -6.453125 C 6.078125 -6.890625 5.519531 -7.109375 4.8125 -7.109375 C 4.101562 -7.109375 3.535156 -6.882812 3.109375 -6.4375 C 2.691406 -5.988281 2.484375 -5.34375 2.484375 -4.5 L 2.484375 0 L 1.140625 0 L 1.140625 -10.96875 L 2.484375 -10.96875 L 2.484375 -6.96875 C 2.753906 -7.382812 3.125 -7.707031 3.59375 -7.9375 C 4.0625 -8.164062 4.585938 -8.28125 5.171875 -8.28125 Z M 5.171875 -8.28125 "/></g></g></g><g clip-path="url(#5cb84a4ef4)"><path fill="#278ce6" d="M 138.445312 150.261719 C 152.546875 132.546875 224.945312 181.296875 247.265625 118.347656 C 233.902344 143.234375 206.441406 151.289062 164.734375 142.503906 C 150.785156 139.722656 142.117188 142.359375 138.445312 150.261719 Z M 175.453125 164.167969 C 197.1875 173.683594 215.398438 175.734375 230.230469 170.464844 C 182.941406 194.035156 151.957031 145.871094 118.179688 156.410156 C 139.472656 146.160156 155.921875 156.265625 175.453125 164.167969 Z M 256.8125 115.859375 C 256.074219 154.363281 227.878906 174.269531 180.738281 158.902344 C 223.035156 166.074219 249.171875 151.289062 256.8125 115.859375 Z M 256.8125 115.859375 " fill-opacity="1" fill-rule="evenodd"/></g></svg>